# Tiled2Unity generated file. Do not modify by hand.
# Wavefront file for 'Map_Test_1_mesh_0002.obj'

# Vertices (Count = 96)
v -8 -2.24 0
v -8.32 -2.24 0
v -8.32 -1.92 0
v -8 -1.92 0
v -8.32 -2.24 0
v -8.639999 -2.24 0
v -8.639999 -1.92 0
v -8.32 -1.92 0
v -8.639999 -2.24 0
v -8.96 -2.24 0
v -8.96 -1.92 0
v -8.639999 -1.92 0
v -8.96 -2.24 0
v -9.28 -2.24 0
v -9.28 -1.92 0
v -8.96 -1.92 0
v -9.28 -2.24 0
v -9.599999 -2.24 0
v -9.599999 -1.92 0
v -9.28 -1.92 0
v -9.599999 -2.24 0
v -9.92 -2.24 0
v -9.92 -1.92 0
v -9.599999 -1.92 0
v -9.92 -2.24 0
v -10.24 -2.24 0
v -10.24 -1.92 0
v -9.92 -1.92 0
v -10.24 -2.24 0
v -10.56 -2.24 0
v -10.56 -1.92 0
v -10.24 -1.92 0
v -8 -4.16 0
v -8.32 -4.16 0
v -8.32 -3.84 0
v -8 -3.84 0
v -8.32 -4.16 0
v -8.639999 -4.16 0
v -8.639999 -3.84 0
v -8.32 -3.84 0
v -8.639999 -4.16 0
v -8.96 -4.16 0
v -8.96 -3.84 0
v -8.639999 -3.84 0
v -8.96 -4.16 0
v -9.28 -4.16 0
v -9.28 -3.84 0
v -8.96 -3.84 0
v -9.28 -4.16 0
v -9.599999 -4.16 0
v -9.599999 -3.84 0
v -9.28 -3.84 0
v -9.599999 -4.16 0
v -9.92 -4.16 0
v -9.92 -3.84 0
v -9.599999 -3.84 0
v -9.92 -4.16 0
v -10.24 -4.16 0
v -10.24 -3.84 0
v -9.92 -3.84 0
v -10.24 -4.16 0
v -10.56 -4.16 0
v -10.56 -3.84 0
v -10.24 -3.84 0
v -8 -9.599999 0
v -8.32 -9.599999 0
v -8.32 -9.28 0
v -8 -9.28 0
v -8.32 -9.599999 0
v -8.639999 -9.599999 0
v -8.639999 -9.28 0
v -8.32 -9.28 0
v -8.639999 -9.599999 0
v -8.96 -9.599999 0
v -8.96 -9.28 0
v -8.639999 -9.28 0
v -8.96 -9.599999 0
v -9.28 -9.599999 0
v -9.28 -9.28 0
v -8.96 -9.28 0
v -9.28 -9.599999 0
v -9.599999 -9.599999 0
v -9.599999 -9.28 0
v -9.28 -9.28 0
v -9.599999 -9.599999 0
v -9.92 -9.599999 0
v -9.92 -9.28 0
v -9.599999 -9.28 0
v -9.92 -9.599999 0
v -10.24 -9.599999 0
v -10.24 -9.28 0
v -9.92 -9.28 0
v -10.24 -9.599999 0
v -10.56 -9.599999 0
v -10.56 -9.28 0
v -10.24 -9.28 0

# Texture cooridinates (Count = 18)
vt 0.0625 0.8
vt 0.125 0.8
vt 0.125 0.9
vt 0.0625 0.9
vt 0.1875 0.8
vt 0.1875 0.9
vt 0.25 0.8
vt 0.25 0.9
vt 0.3125 0.8
vt 0.3125 0.9
vt 0.375 0.8
vt 0.375 0.9
vt 0.4375 0.8
vt 0.4375 0.9
vt 0.5 0.8
vt 0.5 0.9
vt 0.5625 0.8
vt 0.5625 0.9

# Normal
vn 0 0 -1

# Mesh description
g Map_Test_1_mesh_0002

# Faces
f 1/1/1 2/2/1 3/3/1 4/4/1
f 5/2/1 6/5/1 7/6/1 8/3/1
f 9/5/1 10/7/1 11/8/1 12/6/1
f 13/7/1 14/9/1 15/10/1 16/8/1
f 17/9/1 18/11/1 19/12/1 20/10/1
f 21/11/1 22/13/1 23/14/1 24/12/1
f 25/13/1 26/15/1 27/16/1 28/14/1
f 29/15/1 30/17/1 31/18/1 32/16/1
f 33/1/1 34/2/1 35/3/1 36/4/1
f 37/2/1 38/5/1 39/6/1 40/3/1
f 41/5/1 42/7/1 43/8/1 44/6/1
f 45/7/1 46/9/1 47/10/1 48/8/1
f 49/9/1 50/11/1 51/12/1 52/10/1
f 53/11/1 54/13/1 55/14/1 56/12/1
f 57/13/1 58/15/1 59/16/1 60/14/1
f 61/15/1 62/17/1 63/18/1 64/16/1
f 65/1/1 66/2/1 67/3/1 68/4/1
f 69/2/1 70/5/1 71/6/1 72/3/1
f 73/5/1 74/7/1 75/8/1 76/6/1
f 77/7/1 78/9/1 79/10/1 80/8/1
f 81/9/1 82/11/1 83/12/1 84/10/1
f 85/11/1 86/13/1 87/14/1 88/12/1
f 89/13/1 90/15/1 91/16/1 92/14/1
f 93/15/1 94/17/1 95/18/1 96/16/1

