# Tiled2Unity generated file. Do not modify by hand.
# Wavefront file for 'MapAttempt2_mesh_0011.obj'

# Vertices (Count = 136)
v -1.28 -6.4 0
v -1.6 -6.4 0
v -1.6 -6.08 0
v -1.28 -6.08 0
v -1.28 -6.72 0
v -1.6 -6.72 0
v -1.6 -6.4 0
v -1.28 -6.4 0
v -1.28 -7.04 0
v -1.6 -7.04 0
v -1.6 -6.72 0
v -1.28 -6.72 0
v -1.28 -7.36 0
v -1.6 -7.36 0
v -1.6 -7.04 0
v -1.28 -7.04 0
v -1.28 -7.68 0
v -1.6 -7.68 0
v -1.6 -7.36 0
v -1.28 -7.36 0
v -1.28 -8 0
v -1.6 -8 0
v -1.6 -7.68 0
v -1.28 -7.68 0
v -5.12 -8 0
v -5.44 -8 0
v -5.44 -7.68 0
v -5.12 -7.68 0
v -8 -8 0
v -8.32 -8 0
v -8.32 -7.68 0
v -8 -7.68 0
v -5.12 -8.32 0
v -5.44 -8.32 0
v -5.44 -8 0
v -5.12 -8 0
v -5.44 -8.32 0
v -5.76 -8.32 0
v -5.76 -8 0
v -5.44 -8 0
v -7.68 -8.32 0
v -8 -8.32 0
v -8 -8 0
v -7.68 -8 0
v -8 -8.32 0
v -8.32 -8.32 0
v -8.32 -8 0
v -8 -8 0
v -5.12 -8.639999 0
v -5.44 -8.639999 0
v -5.44 -8.32 0
v -5.12 -8.32 0
v -5.44 -8.639999 0
v -5.76 -8.639999 0
v -5.76 -8.32 0
v -5.44 -8.32 0
v -5.76 -8.639999 0
v -6.08 -8.639999 0
v -6.08 -8.32 0
v -5.76 -8.32 0
v -7.36 -8.639999 0
v -7.68 -8.639999 0
v -7.68 -8.32 0
v -7.36 -8.32 0
v -7.68 -8.639999 0
v -8 -8.639999 0
v -8 -8.32 0
v -7.68 -8.32 0
v -8 -8.639999 0
v -8.32 -8.639999 0
v -8.32 -8.32 0
v -8 -8.32 0
v -5.76 -8.96 0
v -6.08 -8.96 0
v -6.08 -8.639999 0
v -5.76 -8.639999 0
v -7.36 -8.96 0
v -7.68 -8.96 0
v -7.68 -8.639999 0
v -7.36 -8.639999 0
v -5.12 -10.24 0
v -5.44 -10.24 0
v -5.44 -9.92 0
v -5.12 -9.92 0
v -5.76 -10.24 0
v -6.08 -10.24 0
v -6.08 -9.92 0
v -5.76 -9.92 0
v -7.36 -10.24 0
v -7.68 -10.24 0
v -7.68 -9.92 0
v -7.36 -9.92 0
v -8 -10.24 0
v -8.32 -10.24 0
v -8.32 -9.92 0
v -8 -9.92 0
v -5.12 -10.56 0
v -5.44 -10.56 0
v -5.44 -10.24 0
v -5.12 -10.24 0
v -5.44 -10.56 0
v -5.76 -10.56 0
v -5.76 -10.24 0
v -5.44 -10.24 0
v -5.76 -10.56 0
v -6.08 -10.56 0
v -6.08 -10.24 0
v -5.76 -10.24 0
v -7.36 -10.56 0
v -7.68 -10.56 0
v -7.68 -10.24 0
v -7.36 -10.24 0
v -7.68 -10.56 0
v -8 -10.56 0
v -8 -10.24 0
v -7.68 -10.24 0
v -8 -10.56 0
v -8.32 -10.56 0
v -8.32 -10.24 0
v -8 -10.24 0
v -5.12 -10.88 0
v -5.44 -10.88 0
v -5.44 -10.56 0
v -5.12 -10.56 0
v -5.44 -10.88 0
v -5.76 -10.88 0
v -5.76 -10.56 0
v -5.44 -10.56 0
v -7.68 -10.88 0
v -8 -10.88 0
v -8 -10.56 0
v -7.68 -10.56 0
v -8 -10.88 0
v -8.32 -10.88 0
v -8.32 -10.56 0
v -8 -10.56 0

# Texture cooridinates (Count = 37)
vt 0.46875 0.09375
vt 0.5 0.09375
vt 0.5 0.125
vt 0.46875 0.125
vt 0.46875 0.0625
vt 0.5 0.0625
vt 0.46875 0.15625
vt 0.5 0.15625
vt 0.5 0.1875
vt 0.46875 0.1875
vt 0.625 0.59375
vt 0.65625 0.59375
vt 0.65625 0.625
vt 0.625 0.625
vt 0.625 0.5
vt 0.65625 0.5
vt 0.65625 0.53125
vt 0.625 0.53125
vt 0.625 0.5625
vt 0.65625 0.5625
vt 0.5 0.3125
vt 0.53125 0.3125
vt 0.53125 0.34375
vt 0.5 0.34375
vt 0.625 0.46875
vt 0.65625 0.46875
vt 0.5 0.28125
vt 0.53125 0.28125
vt 0.46875 0.3125
vt 0.46875 0.34375
vt 0.625 0.4375
vt 0.65625 0.4375
vt 0.46875 0.28125
vt 0.59375 0.5
vt 0.59375 0.53125
vt 0.59375 0.46875
vt 0.59375 0.4375

# Normal
vn 0 0 -1

# Mesh description
g MapAttempt2_mesh_0011

# Faces
f 1/1/1 2/2/1 3/3/1 4/4/1
f 5/5/1 6/6/1 7/2/1 8/1/1
f 9/1/1 10/2/1 11/3/1 12/4/1
f 13/5/1 14/6/1 15/2/1 16/1/1
f 17/7/1 18/8/1 19/9/1 20/10/1
f 21/4/1 22/3/1 23/8/1 24/7/1
f 25/11/1 26/12/1 27/13/1 28/14/1
f 29/15/1 30/16/1 31/17/1 32/18/1
f 33/19/1 34/20/1 35/12/1 36/11/1
f 37/21/1 38/22/1 39/23/1 40/24/1
f 41/21/1 42/22/1 43/23/1 44/24/1
f 45/25/1 46/26/1 47/16/1 48/15/1
f 49/18/1 50/17/1 51/20/1 52/19/1
f 53/27/1 54/28/1 55/22/1 56/21/1
f 57/29/1 58/21/1 59/24/1 60/30/1
f 61/29/1 62/21/1 63/24/1 64/30/1
f 65/27/1 66/28/1 67/22/1 68/21/1
f 69/31/1 70/32/1 71/26/1 72/25/1
f 73/33/1 74/27/1 75/21/1 76/29/1
f 77/33/1 78/27/1 79/21/1 80/29/1
f 81/15/1 82/16/1 83/17/1 84/18/1
f 85/29/1 86/21/1 87/24/1 88/30/1
f 89/29/1 90/21/1 91/24/1 92/30/1
f 93/34/1 94/15/1 95/18/1 96/35/1
f 97/25/1 98/26/1 99/16/1 100/15/1
f 101/21/1 102/22/1 103/23/1 104/24/1
f 105/33/1 106/27/1 107/21/1 108/29/1
f 109/33/1 110/27/1 111/21/1 112/29/1
f 113/21/1 114/22/1 115/23/1 116/24/1
f 117/36/1 118/25/1 119/15/1 120/34/1
f 121/31/1 122/32/1 123/26/1 124/25/1
f 125/27/1 126/28/1 127/22/1 128/21/1
f 129/27/1 130/28/1 131/22/1 132/21/1
f 133/37/1 134/31/1 135/25/1 136/36/1

