# Tiled2Unity generated file. Do not modify by hand.
# Wavefront file for 'MapAttempt2_mesh_0017.obj'

# Vertices (Count = 32)
v -3.52 -1.92 0
v -3.84 -1.92 0
v -3.84 -1.6 0
v -3.52 -1.6 0
v -3.84 -1.92 0
v -4.16 -1.92 0
v -4.16 -1.6 0
v -3.84 -1.6 0
v -4.16 -1.92 0
v -4.48 -1.92 0
v -4.48 -1.6 0
v -4.16 -1.6 0
v -4.48 -1.92 0
v -4.8 -1.92 0
v -4.8 -1.6 0
v -4.48 -1.6 0
v -4.8 -1.92 0
v -5.12 -1.92 0
v -5.12 -1.6 0
v -4.8 -1.6 0
v -5.12 -1.92 0
v -5.44 -1.92 0
v -5.44 -1.6 0
v -5.12 -1.6 0
v -5.44 -1.92 0
v -5.76 -1.92 0
v -5.76 -1.6 0
v -5.44 -1.6 0
v -5.76 -1.92 0
v -6.08 -1.92 0
v -6.08 -1.6 0
v -5.76 -1.6 0

# Texture cooridinates (Count = 18)
vt 0.0625 0.8
vt 0.125 0.8
vt 0.125 0.9
vt 0.0625 0.9
vt 0.1875 0.8
vt 0.1875 0.9
vt 0.25 0.8
vt 0.25 0.9
vt 0.3125 0.8
vt 0.3125 0.9
vt 0.375 0.8
vt 0.375 0.9
vt 0.4375 0.8
vt 0.4375 0.9
vt 0.5 0.8
vt 0.5 0.9
vt 0.5625 0.8
vt 0.5625 0.9

# Normal
vn 0 0 -1

# Mesh description
g MapAttempt2_mesh_0017

# Faces
f 1/1/1 2/2/1 3/3/1 4/4/1
f 5/2/1 6/5/1 7/6/1 8/3/1
f 9/5/1 10/7/1 11/8/1 12/6/1
f 13/7/1 14/9/1 15/10/1 16/8/1
f 17/9/1 18/11/1 19/12/1 20/10/1
f 21/11/1 22/13/1 23/14/1 24/12/1
f 25/13/1 26/15/1 27/16/1 28/14/1
f 29/15/1 30/17/1 31/18/1 32/16/1

