# Tiled2Unity generated file. Do not modify by hand.
# Wavefront file for 'MapAttempt2_mesh_0027.obj'

# Vertices (Count = 32)
v -9.599999 -0.32 0
v -9.92 -0.32 0
v -9.92 0 0
v -9.599999 0 0
v -9.599999 -0.64 0
v -9.92 -0.64 0
v -9.92 -0.32 0
v -9.599999 -0.32 0
v -8.639999 -1.28 0
v -8.96 -1.28 0
v -8.96 -0.96 0
v -8.639999 -0.96 0
v -8.96 -1.28 0
v -9.28 -1.28 0
v -9.28 -0.96 0
v -8.96 -0.96 0
v -8.639999 -1.6 0
v -8.96 -1.6 0
v -8.96 -1.28 0
v -8.639999 -1.28 0
v -8.96 -1.6 0
v -9.28 -1.6 0
v -9.28 -1.28 0
v -8.96 -1.28 0
v -8.639999 -1.92 0
v -8.96 -1.92 0
v -8.96 -1.6 0
v -8.639999 -1.6 0
v -8.96 -1.92 0
v -9.28 -1.92 0
v -9.28 -1.6 0
v -8.96 -1.6 0

# Texture cooridinates (Count = 17)
vt 0.6666667 0.8571429
vt 0.7777778 0.8571429
vt 0.7777778 1
vt 0.6666667 1
vt 0.6666667 0.7142857
vt 0.7777778 0.7142857
vt 0.7777778 0.5714285
vt 0.8888889 0.5714285
vt 0.8888889 0.7142857
vt 1 0.5714285
vt 1 0.7142857
vt 0.7777778 0.4285714
vt 0.8888889 0.4285714
vt 1 0.4285714
vt 0.7777778 0.2857143
vt 0.8888889 0.2857143
vt 1 0.2857143

# Normal
vn 0 0 -1

# Mesh description
g MapAttempt2_mesh_0027

# Faces
f 1/1/1 2/2/1 3/3/1 4/4/1
f 5/5/1 6/6/1 7/2/1 8/1/1
f 9/7/1 10/8/1 11/9/1 12/6/1
f 13/8/1 14/10/1 15/11/1 16/9/1
f 17/12/1 18/13/1 19/8/1 20/7/1
f 21/13/1 22/14/1 23/10/1 24/8/1
f 25/15/1 26/16/1 27/13/1 28/12/1
f 29/16/1 30/17/1 31/14/1 32/13/1

