# Tiled2Unity generated file. Do not modify by hand.
# Wavefront file for 'MapAttempt2_mesh_0004.obj'

# Vertices (Count = 104)
v -10.56 -0.32 0
v -10.88 -0.32 0
v -10.88 0 0
v -10.56 0 0
v -10.56 -0.64 0
v -10.88 -0.64 0
v -10.88 -0.32 0
v -10.56 -0.32 0
v -10.56 -0.96 0
v -10.88 -0.96 0
v -10.88 -0.64 0
v -10.56 -0.64 0
v -10.56 -1.28 0
v -10.88 -1.28 0
v -10.88 -0.96 0
v -10.56 -0.96 0
v -10.56 -1.6 0
v -10.88 -1.6 0
v -10.88 -1.28 0
v -10.56 -1.28 0
v -10.88 -1.6 0
v -11.2 -1.6 0
v -11.2 -1.28 0
v -10.88 -1.28 0
v -11.2 -1.6 0
v -11.52 -1.6 0
v -11.52 -1.28 0
v -11.2 -1.28 0
v -11.52 -1.6 0
v -11.84 -1.6 0
v -11.84 -1.28 0
v -11.52 -1.28 0
v -11.84 -1.6 0
v -12.16 -1.6 0
v -12.16 -1.28 0
v -11.84 -1.28 0
v -12.16 -1.6 0
v -12.48 -1.6 0
v -12.48 -1.28 0
v -12.16 -1.28 0
v -12.48 -1.6 0
v -12.8 -1.6 0
v -12.8 -1.28 0
v -12.48 -1.28 0
v -12.8 -1.6 0
v -13.12 -1.6 0
v -13.12 -1.28 0
v -12.8 -1.28 0
v -13.12 -1.6 0
v -13.44 -1.6 0
v -13.44 -1.28 0
v -13.12 -1.28 0
v -13.44 -1.6 0
v -13.76 -1.6 0
v -13.76 -1.28 0
v -13.44 -1.28 0
v -13.76 -1.6 0
v -14.08 -1.6 0
v -14.08 -1.28 0
v -13.76 -1.28 0
v -15.68 -1.6 0
v -16 -1.6 0
v -16 -1.28 0
v -15.68 -1.28 0
v -16 -1.6 0
v -16.32 -1.6 0
v -16.32 -1.28 0
v -16 -1.28 0
v -16.32 -1.6 0
v -16.64 -1.6 0
v -16.64 -1.28 0
v -16.32 -1.28 0
v -16.64 -1.6 0
v -16.96 -1.6 0
v -16.96 -1.28 0
v -16.64 -1.28 0
v -16.96 -1.6 0
v -17.28 -1.6 0
v -17.28 -1.28 0
v -16.96 -1.28 0
v -17.28 -1.6 0
v -17.6 -1.6 0
v -17.6 -1.28 0
v -17.28 -1.28 0
v -17.6 -1.6 0
v -17.92 -1.6 0
v -17.92 -1.28 0
v -17.6 -1.28 0
v -17.92 -1.6 0
v -18.24 -1.6 0
v -18.24 -1.28 0
v -17.92 -1.28 0
v -18.24 -1.6 0
v -18.56 -1.6 0
v -18.56 -1.28 0
v -18.24 -1.28 0
v -18.56 -1.6 0
v -18.88 -1.6 0
v -18.88 -1.28 0
v -18.56 -1.28 0
v -18.88 -1.6 0
v -19.2 -1.6 0
v -19.2 -1.28 0
v -18.88 -1.28 0

# Texture cooridinates (Count = 9)
vt 0.15625 0.59375
vt 0.1875 0.59375
vt 0.1875 0.625
vt 0.15625 0.625
vt 0.125 0.65625
vt 0.15625 0.65625
vt 0.15625 0.6875
vt 0.125 0.6875
vt 0.125 0.625

# Normal
vn 0 0 -1

# Mesh description
g MapAttempt2_mesh_0004

# Faces
f 1/1/1 2/2/1 3/3/1 4/4/1
f 5/1/1 6/2/1 7/3/1 8/4/1
f 9/1/1 10/2/1 11/3/1 12/4/1
f 13/1/1 14/2/1 15/3/1 16/4/1
f 17/5/1 18/6/1 19/7/1 20/8/1
f 21/9/1 22/4/1 23/6/1 24/5/1
f 25/9/1 26/4/1 27/6/1 28/5/1
f 29/9/1 30/4/1 31/6/1 32/5/1
f 33/9/1 34/4/1 35/6/1 36/5/1
f 37/9/1 38/4/1 39/6/1 40/5/1
f 41/9/1 42/4/1 43/6/1 44/5/1
f 45/9/1 46/4/1 47/6/1 48/5/1
f 49/9/1 50/4/1 51/6/1 52/5/1
f 53/9/1 54/4/1 55/6/1 56/5/1
f 57/9/1 58/4/1 59/6/1 60/5/1
f 61/9/1 62/4/1 63/6/1 64/5/1
f 65/9/1 66/4/1 67/6/1 68/5/1
f 69/9/1 70/4/1 71/6/1 72/5/1
f 73/9/1 74/4/1 75/6/1 76/5/1
f 77/9/1 78/4/1 79/6/1 80/5/1
f 81/9/1 82/4/1 83/6/1 84/5/1
f 85/9/1 86/4/1 87/6/1 88/5/1
f 89/9/1 90/4/1 91/6/1 92/5/1
f 93/9/1 94/4/1 95/6/1 96/5/1
f 97/9/1 98/4/1 99/6/1 100/5/1
f 101/9/1 102/4/1 103/6/1 104/5/1

