# Tiled2Unity generated file. Do not modify by hand.
# Wavefront file for 'MapAttempt2_mesh_0010.obj'

# Vertices (Count = 120)
v 0 -5.76 0
v -0.32 -5.76 0
v -0.32 -5.44 0
v 0 -5.44 0
v 0 -6.08 0
v -0.32 -6.08 0
v -0.32 -5.76 0
v 0 -5.76 0
v 0 -6.4 0
v -0.32 -6.4 0
v -0.32 -6.08 0
v 0 -6.08 0
v 0 -6.72 0
v -0.32 -6.72 0
v -0.32 -6.4 0
v 0 -6.4 0
v 0 -7.04 0
v -0.32 -7.04 0
v -0.32 -6.72 0
v 0 -6.72 0
v 0 -7.36 0
v -0.32 -7.36 0
v -0.32 -7.04 0
v 0 -7.04 0
v 0 -7.68 0
v -0.32 -7.68 0
v -0.32 -7.36 0
v 0 -7.36 0
v 0 -8 0
v -0.32 -8 0
v -0.32 -7.68 0
v 0 -7.68 0
v 0 -8.32 0
v -0.32 -8.32 0
v -0.32 -8 0
v 0 -8 0
v 0 -8.639999 0
v -0.32 -8.639999 0
v -0.32 -8.32 0
v 0 -8.32 0
v 0 -8.96 0
v -0.32 -8.96 0
v -0.32 -8.639999 0
v 0 -8.639999 0
v 0 -9.28 0
v -0.32 -9.28 0
v -0.32 -8.96 0
v 0 -8.96 0
v -0.32 -9.28 0
v -0.64 -9.28 0
v -0.64 -8.96 0
v -0.32 -8.96 0
v -0.64 -9.28 0
v -0.96 -9.28 0
v -0.96 -8.96 0
v -0.64 -8.96 0
v -0.96 -9.28 0
v -1.28 -9.28 0
v -1.28 -8.96 0
v -0.96 -8.96 0
v -1.28 -9.28 0
v -1.6 -9.28 0
v -1.6 -8.96 0
v -1.28 -8.96 0
v -1.6 -9.28 0
v -1.92 -9.28 0
v -1.92 -8.96 0
v -1.6 -8.96 0
v -1.92 -9.28 0
v -2.24 -9.28 0
v -2.24 -8.96 0
v -1.92 -8.96 0
v -2.24 -9.28 0
v -2.56 -9.28 0
v -2.56 -8.96 0
v -2.24 -8.96 0
v -2.56 -9.28 0
v -2.88 -9.28 0
v -2.88 -8.96 0
v -2.56 -8.96 0
v 0 -9.599999 0
v -0.32 -9.599999 0
v -0.32 -9.28 0
v 0 -9.28 0
v -0.32 -9.599999 0
v -0.64 -9.599999 0
v -0.64 -9.28 0
v -0.32 -9.28 0
v -0.64 -9.599999 0
v -0.96 -9.599999 0
v -0.96 -9.28 0
v -0.64 -9.28 0
v -0.96 -9.599999 0
v -1.28 -9.599999 0
v -1.28 -9.28 0
v -0.96 -9.28 0
v -2.56 -9.599999 0
v -2.88 -9.599999 0
v -2.88 -9.28 0
v -2.56 -9.28 0
v 0 -9.92 0
v -0.32 -9.92 0
v -0.32 -9.599999 0
v 0 -9.599999 0
v 0 -10.24 0
v -0.32 -10.24 0
v -0.32 -9.92 0
v 0 -9.92 0
v 0 -10.56 0
v -0.32 -10.56 0
v -0.32 -10.24 0
v 0 -10.24 0
v 0 -10.88 0
v -0.32 -10.88 0
v -0.32 -10.56 0
v 0 -10.56 0
v -2.56 -10.88 0
v -2.88 -10.88 0
v -2.88 -10.56 0
v -2.56 -10.56 0

# Texture cooridinates (Count = 18)
vt 0.6315789 0.8461539
vt 0.6315789 0.6923077
vt 0.5263158 0.6923077
vt 0.5263158 0.8461539
vt 0.2105263 0.3846154
vt 0.3157895 0.3846154
vt 0.3157895 0.5384616
vt 0.2105263 0.5384616
vt 0.4210526 0.3846154
vt 0.4210526 0.5384616
vt 0.3157895 0.6923077
vt 0.2105263 0.6923077
vt 0.4210526 0.6923077
vt 0.1052632 0.5384616
vt 0.1052632 0.6923077
vt 0.2105263 0.2307692
vt 0.3157895 0.2307692
vt 0.4210526 0.2307692

# Normal
vn 0 0 -1

# Mesh description
g MapAttempt2_mesh_0010

# Faces
f 1/1/1 2/2/1 3/3/1 4/4/1
f 5/1/1 6/2/1 7/3/1 8/4/1
f 9/1/1 10/2/1 11/3/1 12/4/1
f 13/1/1 14/2/1 15/3/1 16/4/1
f 17/1/1 18/2/1 19/3/1 20/4/1
f 21/1/1 22/2/1 23/3/1 24/4/1
f 25/1/1 26/2/1 27/3/1 28/4/1
f 29/1/1 30/2/1 31/3/1 32/4/1
f 33/1/1 34/2/1 35/3/1 36/4/1
f 37/1/1 38/2/1 39/3/1 40/4/1
f 41/1/1 42/2/1 43/3/1 44/4/1
f 45/5/1 46/6/1 47/7/1 48/8/1
f 49/6/1 50/9/1 51/10/1 52/7/1
f 53/5/1 54/6/1 55/7/1 56/8/1
f 57/6/1 58/9/1 59/10/1 60/7/1
f 61/8/1 62/7/1 63/11/1 64/12/1
f 65/7/1 66/10/1 67/13/1 68/11/1
f 69/8/1 70/7/1 71/11/1 72/12/1
f 73/7/1 74/10/1 75/13/1 76/11/1
f 77/14/1 78/8/1 79/12/1 80/15/1
f 81/16/1 82/17/1 83/6/1 84/5/1
f 85/17/1 86/18/1 87/9/1 88/6/1
f 89/16/1 90/17/1 91/6/1 92/5/1
f 93/17/1 94/18/1 95/9/1 96/6/1
f 97/14/1 98/8/1 99/12/1 100/15/1
f 101/1/1 102/2/1 103/3/1 104/4/1
f 105/1/1 106/2/1 107/3/1 108/4/1
f 109/1/1 110/2/1 111/3/1 112/4/1
f 113/4/1 114/3/1 115/2/1 116/1/1
f 117/14/1 118/8/1 119/12/1 120/15/1

