# Tiled2Unity generated file. Do not modify by hand.
# Wavefront file for 'MapAttempt2_mesh_0013.obj'

# Vertices (Count = 24)
v -1.28 -6.72 0
v -1.6 -6.72 0
v -1.6 -6.4 0
v -1.28 -6.4 0
v -1.28 -7.04 0
v -1.6 -7.04 0
v -1.6 -6.72 0
v -1.28 -6.72 0
v -1.28 -7.36 0
v -1.6 -7.36 0
v -1.6 -7.04 0
v -1.28 -7.04 0
v -1.28 -7.68 0
v -1.6 -7.68 0
v -1.6 -7.36 0
v -1.28 -7.36 0
v -1.28 -8 0
v -1.6 -8 0
v -1.6 -7.68 0
v -1.28 -7.68 0
v -1.28 -8.32 0
v -1.6 -8.32 0
v -1.6 -8 0
v -1.28 -8 0

# Texture cooridinates (Count = 10)
vt 0.46875 0.09375
vt 0.5 0.09375
vt 0.5 0.125
vt 0.46875 0.125
vt 0.46875 0.0625
vt 0.5 0.0625
vt 0.46875 0.15625
vt 0.5 0.15625
vt 0.5 0.1875
vt 0.46875 0.1875

# Normal
vn 0 0 -1

# Mesh description
g MapAttempt2_mesh_0013

# Faces
f 1/1/1 2/2/1 3/3/1 4/4/1
f 5/5/1 6/6/1 7/2/1 8/1/1
f 9/1/1 10/2/1 11/3/1 12/4/1
f 13/5/1 14/6/1 15/2/1 16/1/1
f 17/7/1 18/8/1 19/9/1 20/10/1
f 21/4/1 22/3/1 23/8/1 24/7/1

