# Tiled2Unity generated file. Do not modify by hand.
# Wavefront file for 'MapAttempt2_mesh_0012.obj'

# Vertices (Count = 80)
v -8.32 -5.44 0
v -8.639999 -5.44 0
v -8.639999 -5.12 0
v -8.32 -5.12 0
v -8.639999 -5.44 0
v -8.96 -5.44 0
v -8.96 -5.12 0
v -8.639999 -5.12 0
v -8.32 -5.76 0
v -8.639999 -5.76 0
v -8.639999 -5.44 0
v -8.32 -5.44 0
v -8.639999 -5.76 0
v -8.96 -5.76 0
v -8.96 -5.44 0
v -8.639999 -5.44 0
v -2.56 -6.4 0
v -2.88 -6.4 0
v -2.88 -6.08 0
v -2.56 -6.08 0
v -2.88 -6.4 0
v -3.2 -6.4 0
v -3.2 -6.08 0
v -2.88 -6.08 0
v -2.56 -6.72 0
v -2.88 -6.72 0
v -2.88 -6.4 0
v -2.56 -6.4 0
v -2.88 -6.72 0
v -3.2 -6.72 0
v -3.2 -6.4 0
v -2.88 -6.4 0
v -6.4 -6.72 0
v -6.72 -6.72 0
v -6.72 -6.4 0
v -6.4 -6.4 0
v -6.72 -6.72 0
v -7.04 -6.72 0
v -7.04 -6.4 0
v -6.72 -6.4 0
v -6.4 -7.04 0
v -6.72 -7.04 0
v -6.72 -6.72 0
v -6.4 -6.72 0
v -6.72 -7.04 0
v -7.04 -7.04 0
v -7.04 -6.72 0
v -6.72 -6.72 0
v -2.56 -8 0
v -2.88 -8 0
v -2.88 -7.68 0
v -2.56 -7.68 0
v -2.88 -8 0
v -3.2 -8 0
v -3.2 -7.68 0
v -2.88 -7.68 0
v -2.56 -8.32 0
v -2.88 -8.32 0
v -2.88 -8 0
v -2.56 -8 0
v -2.88 -8.32 0
v -3.2 -8.32 0
v -3.2 -8 0
v -2.88 -8 0
v -3.52 -10.56 0
v -3.84 -10.56 0
v -3.84 -10.24 0
v -3.52 -10.24 0
v -3.84 -10.56 0
v -4.16 -10.56 0
v -4.16 -10.24 0
v -3.84 -10.24 0
v -3.52 -10.88 0
v -3.84 -10.88 0
v -3.84 -10.56 0
v -3.52 -10.56 0
v -3.84 -10.88 0
v -4.16 -10.88 0
v -4.16 -10.56 0
v -3.84 -10.56 0

# Texture cooridinates (Count = 9)
vt 0.2105263 0.3846154
vt 0.3157895 0.3846154
vt 0.3157895 0.5384616
vt 0.2105263 0.5384616
vt 0.4210526 0.3846154
vt 0.4210526 0.5384616
vt 0.2105263 0.2307692
vt 0.3157895 0.2307692
vt 0.4210526 0.2307692

# Normal
vn 0 0 -1

# Mesh description
g MapAttempt2_mesh_0012

# Faces
f 1/1/1 2/2/1 3/3/1 4/4/1
f 5/2/1 6/5/1 7/6/1 8/3/1
f 9/7/1 10/8/1 11/2/1 12/1/1
f 13/8/1 14/9/1 15/5/1 16/2/1
f 17/1/1 18/2/1 19/3/1 20/4/1
f 21/2/1 22/5/1 23/6/1 24/3/1
f 25/7/1 26/8/1 27/2/1 28/1/1
f 29/8/1 30/9/1 31/5/1 32/2/1
f 33/1/1 34/2/1 35/3/1 36/4/1
f 37/2/1 38/5/1 39/6/1 40/3/1
f 41/7/1 42/8/1 43/2/1 44/1/1
f 45/8/1 46/9/1 47/5/1 48/2/1
f 49/1/1 50/2/1 51/3/1 52/4/1
f 53/2/1 54/5/1 55/6/1 56/3/1
f 57/7/1 58/8/1 59/2/1 60/1/1
f 61/8/1 62/9/1 63/5/1 64/2/1
f 65/1/1 66/2/1 67/3/1 68/4/1
f 69/2/1 70/5/1 71/6/1 72/3/1
f 73/7/1 74/8/1 75/2/1 76/1/1
f 77/8/1 78/9/1 79/5/1 80/2/1

