# Tiled2Unity generated file. Do not modify by hand.
# Wavefront file for 'MapAttempt2_mesh_0009.obj'

# Vertices (Count = 32)
v -10.56 -3.2 0
v -10.88 -3.2 0
v -10.88 -2.88 0
v -10.56 -2.88 0
v -10.88 -3.2 0
v -11.2 -3.2 0
v -11.2 -2.88 0
v -10.88 -2.88 0
v -10.56 -3.52 0
v -10.88 -3.52 0
v -10.88 -3.2 0
v -10.56 -3.2 0
v -10.88 -3.52 0
v -11.2 -3.52 0
v -11.2 -3.2 0
v -10.88 -3.2 0
v -13.12 -4.16 0
v -13.44 -4.16 0
v -13.44 -3.84 0
v -13.12 -3.84 0
v -13.44 -4.16 0
v -13.76 -4.16 0
v -13.76 -3.84 0
v -13.44 -3.84 0
v -13.12 -4.48 0
v -13.44 -4.48 0
v -13.44 -4.16 0
v -13.12 -4.16 0
v -13.44 -4.48 0
v -13.76 -4.48 0
v -13.76 -4.16 0
v -13.44 -4.16 0

# Texture cooridinates (Count = 9)
vt 0.15 0.85
vt 0.2 0.85
vt 0.2 0.9
vt 0.15 0.9
vt 0.25 0.85
vt 0.25 0.9
vt 0.15 0.8
vt 0.2 0.8
vt 0.25 0.8

# Normal
vn 0 0 -1

# Mesh description
g MapAttempt2_mesh_0009

# Faces
f 1/1/1 2/2/1 3/3/1 4/4/1
f 5/2/1 6/5/1 7/6/1 8/3/1
f 9/7/1 10/8/1 11/2/1 12/1/1
f 13/8/1 14/9/1 15/5/1 16/2/1
f 17/1/1 18/2/1 19/3/1 20/4/1
f 21/2/1 22/5/1 23/6/1 24/3/1
f 25/7/1 26/8/1 27/2/1 28/1/1
f 29/8/1 30/9/1 31/5/1 32/2/1

